<?xml version="1.0" encoding="utf-8"?>
<!-- Generator: Adobe Illustrator 26.0.1, SVG Export Plug-In . SVG Version: 6.00 Build 0)  -->
<svg version="1.1" id="Layer_1" xmlns="http://www.w3.org/2000/svg" xmlns:xlink="http://www.w3.org/1999/xlink" x="0px" y="0px"
	 viewBox="0 0 50 50" style="enable-background:new 0 0 50 50;" xml:space="preserve">
<style type="text/css">
	.st0{fill:url(#SVGID_1_);}
	
		.st1{fill:none;stroke:url(#SVGID_00000030469347025641745040000010700614483183609218_);stroke-width:0.2144;stroke-miterlimit:10;}
	.st2{fill:url(#SVGID_00000139274481472199024970000014563389388797423755_);}
	.st3{fill:none;stroke:url(#SVGID_00000147898973072360540750000006958870521860140982_);stroke-miterlimit:10;}
	.st4{fill:#ED1C24;}
	.st5{fill:#C7202F;}
</style>
<g id="Shape_1_00000113327619479183063000000007900514132681040560_">
	<g>
		<linearGradient id="SVGID_1_" gradientUnits="userSpaceOnUse" x1="3.624" y1="18.044" x2="47.1589" y2="18.044">
			<stop  offset="0" style="stop-color:#FFF33B"/>
			<stop  offset="0.0595" style="stop-color:#FFE029"/>
			<stop  offset="0.1303" style="stop-color:#FFD217"/>
			<stop  offset="0.2032" style="stop-color:#FEC90E"/>
			<stop  offset="0.2809" style="stop-color:#FDC70C"/>
			<stop  offset="0.6685" style="stop-color:#F3903F"/>
			<stop  offset="0.8876" style="stop-color:#ED683C"/>
			<stop  offset="1" style="stop-color:#E93E3A"/>
		</linearGradient>
		<path class="st0" d="M47.16,36.22l-0.14-24.01l-4.34-2.31V3.13h-3.39v4.61L25.46-0.13L3.62,12.48v18.99l3.39-2.31l0.14-14.92
			l17.5-10.17c0.85-0.41,1.22-0.14,1.22-0.14L43.5,14.25v19.67L47.16,36.22z"/>
	</g>
	<g>
		
			<linearGradient id="SVGID_00000067238607279030206760000016367083469011576990_" gradientUnits="userSpaceOnUse" x1="3.624" y1="18.044" x2="47.1589" y2="18.044">
			<stop  offset="0" style="stop-color:#FFF33B"/>
			<stop  offset="0.0595" style="stop-color:#FFE029"/>
			<stop  offset="0.1303" style="stop-color:#FFD217"/>
			<stop  offset="0.2032" style="stop-color:#FEC90E"/>
			<stop  offset="0.2809" style="stop-color:#FDC70C"/>
			<stop  offset="0.6685" style="stop-color:#F3903F"/>
			<stop  offset="0.8876" style="stop-color:#ED683C"/>
			<stop  offset="1" style="stop-color:#E93E3A"/>
		</linearGradient>
		
			<path style="fill:none;stroke:url(#SVGID_00000067238607279030206760000016367083469011576990_);stroke-width:0.2144;stroke-miterlimit:10;" d="
			M47.16,36.22l-0.14-24.01l-4.34-2.31V3.13h-3.39v4.61L25.46-0.13L3.62,12.48v18.99l3.39-2.31l0.14-14.92l17.5-10.17
			c0.85-0.41,1.22-0.14,1.22-0.14L43.5,14.25v19.67L47.16,36.22z"/>
	</g>
</g>
<g id="Shape_2_00000176734155761807385650000011763948248500570810_">
	<g>
		
			<linearGradient id="SVGID_00000047049249427888314430000012506012755374721928_" gradientUnits="userSpaceOnUse" x1="3.6656" y1="39.9901" x2="45.9383" y2="39.9901">
			<stop  offset="0" style="stop-color:#FFF33B"/>
			<stop  offset="0.0595" style="stop-color:#FFE029"/>
			<stop  offset="0.1303" style="stop-color:#FFD217"/>
			<stop  offset="0.2032" style="stop-color:#FEC90E"/>
			<stop  offset="0.2809" style="stop-color:#FDC70C"/>
			<stop  offset="0.6685" style="stop-color:#F3903F"/>
			<stop  offset="0.8876" style="stop-color:#ED683C"/>
			<stop  offset="1" style="stop-color:#E93E3A"/>
		</linearGradient>
		<path style="fill:url(#SVGID_00000047049249427888314430000012506012755374721928_);" d="M43.09,36.08l-16.55,9.63
			c-1.19,0.92-2.44-0.14-2.44-0.14L7.96,36.22c-0.7-0.8,0.54-1.36,0.54-1.36l4.2-2.58L10,30.52l-5.97,3.53c-0.82,1.43,0,3.25,0,3.25
			l20.75,11.93c0.48,0.5,1.09,0,1.09,0l20.07-11.66L43.09,36.08z"/>
	</g>
	<g>
		
			<linearGradient id="SVGID_00000088119149593750425000000010586837133473558959_" gradientUnits="userSpaceOnUse" x1="3.6656" y1="39.9901" x2="45.9383" y2="39.9901">
			<stop  offset="0" style="stop-color:#FFF33B"/>
			<stop  offset="0.0595" style="stop-color:#FFE029"/>
			<stop  offset="0.1303" style="stop-color:#FFD217"/>
			<stop  offset="0.2032" style="stop-color:#FEC90E"/>
			<stop  offset="0.2809" style="stop-color:#FDC70C"/>
			<stop  offset="0.6685" style="stop-color:#F3903F"/>
			<stop  offset="0.8876" style="stop-color:#ED683C"/>
			<stop  offset="1" style="stop-color:#E93E3A"/>
		</linearGradient>
		<path style="fill:none;stroke:url(#SVGID_00000088119149593750425000000010586837133473558959_);stroke-miterlimit:10;" d="
			M43.09,36.08l-16.55,9.63c-1.19,0.92-2.44-0.14-2.44-0.14L7.96,36.22c-0.7-0.8,0.54-1.36,0.54-1.36l4.2-2.58L10,30.52l-5.97,3.53
			c-0.82,1.43,0,3.25,0,3.25l20.75,11.93c0.48,0.5,1.09,0,1.09,0l20.07-11.66L43.09,36.08z"/>
	</g>
</g>
<g id="Shape_3_00000120538295783507913650000000866944440233477796_">
	<g>
		<path class="st4" d="M22.1,28.92l-0.44-16.21c-0.01-0.04-0.14-0.25-0.05-0.42c0.08-0.15,0.33-0.23,0.72-0.24h5.33
			c0,0,0.36,0.02,0.37,0.23l-0.44,16.64H22.1z"/>
	</g>
	<g>
		<path class="st5" d="M27.65,12.12c0.02,0,0.29,0.02,0.3,0.14l-0.44,16.58h-5.34l-0.44-16.13l0-0.04l-0.02-0.03
			c0,0-0.11-0.19-0.04-0.31c0.07-0.13,0.3-0.2,0.65-0.2H27.65 M27.66,11.97h-5.33c-1.19,0.02-0.74,0.74-0.74,0.74l0.44,16.28h5.62
			l0.44-16.72C28.08,11.99,27.66,11.97,27.66,11.97L27.66,11.97z"/>
	</g>
</g>
<g id="Ellipse_1_00000083078856801573784410000015977663792870493116_">
	<g>
		<ellipse class="st4" cx="24.8" cy="33.65" rx="3.48" ry="3.4"/>
	</g>
	<g>
		<path class="st5" d="M24.8,30.32c1.88,0,3.4,1.49,3.4,3.33c0,1.84-1.53,3.33-3.4,3.33s-3.4-1.49-3.4-3.33
			C21.4,31.82,22.93,30.32,24.8,30.32 M24.8,30.18c-1.96,0-3.55,1.56-3.55,3.48s1.59,3.48,3.55,3.48s3.55-1.56,3.55-3.48
			S26.76,30.18,24.8,30.18L24.8,30.18z"/>
	</g>
</g>
</svg>
